<mxfile host="65bd71144e">
    <diagram id="NWEOQjGGJ4pVf31XOlH0" name="create-or-join">
        <mxGraphModel dx="706" dy="932" grid="1" gridSize="10" guides="1" tooltips="1" connect="1" arrows="1" fold="1" page="1" pageScale="1" pageWidth="827" pageHeight="1169" background="#FFFFFF" math="0" shadow="0">
            <root>
                <mxCell id="0"/>
                <mxCell id="1" parent="0"/>
                <mxCell id="38" value="" style="endArrow=none;dashed=1;html=1;rounded=0;fontColor=#FF0000;" parent="1" edge="1">
                    <mxGeometry width="50" height="50" relative="1" as="geometry">
                        <mxPoint x="250" y="692.5" as="sourcePoint"/>
                        <mxPoint x="250" y="122.5" as="targetPoint"/>
                    </mxGeometry>
                </mxCell>
                <mxCell id="3" value="PID Namespace: a" style="text;html=1;strokeColor=none;fillColor=none;align=center;verticalAlign=middle;whiteSpace=wrap;rounded=0;" parent="1" vertex="1">
                    <mxGeometry x="37.5" y="125" width="150" height="30" as="geometry"/>
                </mxCell>
                <mxCell id="4" value="PID Namespace: b" style="text;html=1;strokeColor=none;fillColor=none;align=center;verticalAlign=middle;whiteSpace=wrap;rounded=0;" parent="1" vertex="1">
                    <mxGeometry x="307.5" y="125" width="150" height="30" as="geometry"/>
                </mxCell>
                <mxCell id="8" value="&lt;font color=&quot;#ff0000&quot;&gt;&lt;b&gt;clone(2)&lt;/b&gt;&lt;/font&gt;" style="edgeStyle=none;html=1;exitX=1;exitY=0.5;exitDx=0;exitDy=0;entryX=0;entryY=0.5;entryDx=0;entryDy=0;" parent="1" source="5" target="7" edge="1">
                    <mxGeometry relative="1" as="geometry"/>
                </mxCell>
                <mxCell id="5" value="" style="rounded=0;whiteSpace=wrap;html=1;" parent="1" vertex="1">
                    <mxGeometry x="20" y="190" width="185" height="72.5" as="geometry"/>
                </mxCell>
                <mxCell id="7" value="" style="rounded=0;whiteSpace=wrap;html=1;" parent="1" vertex="1">
                    <mxGeometry x="289.5" y="182.5" width="186" height="95" as="geometry"/>
                </mxCell>
                <mxCell id="9" value="&lt;div&gt;&lt;i style=&quot;background-color: rgb(204 , 229 , 255)&quot;&gt;PID Namespace b PID: 1&lt;/i&gt;&lt;/div&gt;&lt;i&gt;&lt;div&gt;&lt;i style=&quot;background-color: rgb(204 , 255 , 204)&quot;&gt;PID Namespace a PID: 11&lt;/i&gt;&lt;/div&gt;&lt;/i&gt;" style="text;html=1;strokeColor=none;fillColor=none;align=left;verticalAlign=middle;whiteSpace=wrap;rounded=0;" parent="1" vertex="1">
                    <mxGeometry x="310" y="215" width="147.5" height="30" as="geometry"/>
                </mxCell>
                <mxCell id="20" value="&lt;b&gt;&lt;font color=&quot;#ff0000&quot;&gt;2: fork(2)&lt;/font&gt;&lt;/b&gt;" style="edgeStyle=none;html=1;exitX=1;exitY=0.5;exitDx=0;exitDy=0;entryX=0;entryY=0.5;entryDx=0;entryDy=0;" parent="1" source="11" target="17" edge="1">
                    <mxGeometry relative="1" as="geometry"/>
                </mxCell>
                <mxCell id="11" value="" style="rounded=0;whiteSpace=wrap;html=1;" parent="1" vertex="1">
                    <mxGeometry x="20" y="317.5" width="185" height="115" as="geometry"/>
                </mxCell>
                <mxCell id="15" value="&lt;font color=&quot;#ff0000&quot;&gt;&lt;b&gt;1: setns(2)&lt;/b&gt;&lt;/font&gt;" style="edgeStyle=none;html=1;exitX=0.5;exitY=1;exitDx=0;exitDy=0;" parent="1" source="52" target="13" edge="1">
                    <mxGeometry relative="1" as="geometry">
                        <mxPoint x="112.5" y="357.5" as="sourcePoint"/>
                    </mxGeometry>
                </mxCell>
                <mxCell id="13" value="/proc/[pid]/ns/pid_for_children" style="text;html=1;strokeColor=none;fillColor=none;align=center;verticalAlign=middle;whiteSpace=wrap;rounded=0;" parent="1" vertex="1">
                    <mxGeometry x="30" y="392.5" width="165" height="30" as="geometry"/>
                </mxCell>
                <mxCell id="17" value="" style="rounded=0;whiteSpace=wrap;html=1;" parent="1" vertex="1">
                    <mxGeometry x="289.5" y="327.5" width="186" height="95" as="geometry"/>
                </mxCell>
                <mxCell id="18" value="&lt;i&gt;&lt;span style=&quot;background-color: rgb(204 , 229 , 255)&quot;&gt;PID Namespace b PID: 3&lt;/span&gt;&lt;br&gt;&lt;/i&gt;&lt;i style=&quot;background-color: rgb(204 , 255 , 204)&quot;&gt;PID Namespace a PID: 14&lt;/i&gt;&lt;i&gt;&lt;br&gt;&lt;/i&gt;" style="text;html=1;strokeColor=none;fillColor=none;align=center;verticalAlign=middle;whiteSpace=wrap;rounded=0;" parent="1" vertex="1">
                    <mxGeometry x="295.5" y="360" width="180" height="30" as="geometry"/>
                </mxCell>
                <mxCell id="21" value="PID Namespace: c" style="text;html=1;strokeColor=none;fillColor=none;align=center;verticalAlign=middle;whiteSpace=wrap;rounded=0;" parent="1" vertex="1">
                    <mxGeometry x="307.5" y="492.5" width="150" height="30" as="geometry"/>
                </mxCell>
                <mxCell id="22" value="" style="rounded=0;whiteSpace=wrap;html=1;" parent="1" vertex="1">
                    <mxGeometry x="289.5" y="547.5" width="186" height="95" as="geometry"/>
                </mxCell>
                <mxCell id="28" value="&lt;b&gt;&lt;font color=&quot;#ff0000&quot;&gt;2: fork(2)&lt;/font&gt;&lt;/b&gt;" style="edgeStyle=orthogonalEdgeStyle;html=1;exitX=1;exitY=0.5;exitDx=0;exitDy=0;entryX=0;entryY=0.5;entryDx=0;entryDy=0;rounded=0;" parent="1" source="29" target="22" edge="1">
                    <mxGeometry relative="1" as="geometry">
                        <mxPoint x="650" y="360" as="targetPoint"/>
                    </mxGeometry>
                </mxCell>
                <mxCell id="29" value="" style="rounded=0;whiteSpace=wrap;html=1;" parent="1" vertex="1">
                    <mxGeometry x="20" y="531.25" width="185" height="127.5" as="geometry"/>
                </mxCell>
                <mxCell id="30" value="&lt;font color=&quot;#ff0000&quot;&gt;&lt;b&gt;1: unshare(2)&lt;/b&gt;&lt;/font&gt;" style="edgeStyle=none;html=1;exitX=0.5;exitY=1;exitDx=0;exitDy=0;" parent="1" source="53" target="32" edge="1">
                    <mxGeometry relative="1" as="geometry">
                        <mxPoint x="113" y="558.75" as="sourcePoint"/>
                    </mxGeometry>
                </mxCell>
                <mxCell id="32" value="/proc/[pid]/ns/pid_for_children" style="text;html=1;strokeColor=none;fillColor=none;align=center;verticalAlign=middle;whiteSpace=wrap;rounded=0;" parent="1" vertex="1">
                    <mxGeometry x="31.25" y="608.75" width="165" height="30" as="geometry"/>
                </mxCell>
                <mxCell id="37" value="" style="endArrow=none;dashed=1;html=1;rounded=0;fontColor=#FF0000;" parent="1" edge="1">
                    <mxGeometry width="50" height="50" relative="1" as="geometry">
                        <mxPoint x="250" y="472.5" as="sourcePoint"/>
                        <mxPoint x="510" y="472.5" as="targetPoint"/>
                    </mxGeometry>
                </mxCell>
                <mxCell id="39" value="" style="endArrow=none;dashed=1;html=1;rounded=0;fontColor=#FF0000;" parent="1" edge="1">
                    <mxGeometry width="50" height="50" relative="1" as="geometry">
                        <mxPoint x="510" y="695" as="sourcePoint"/>
                        <mxPoint x="510" y="125" as="targetPoint"/>
                    </mxGeometry>
                </mxCell>
                <mxCell id="40" value="&lt;font color=&quot;#ff0000&quot;&gt;&lt;b&gt;clone(2)&lt;br&gt;&lt;/b&gt;&lt;/font&gt;" style="edgeStyle=none;html=1;exitX=1;exitY=0.5;exitDx=0;exitDy=0;entryX=0;entryY=0.5;entryDx=0;entryDy=0;" parent="1" target="41" edge="1">
                    <mxGeometry relative="1" as="geometry">
                        <mxPoint x="475.5" y="230" as="sourcePoint"/>
                        <mxPoint x="550" y="230" as="targetPoint"/>
                    </mxGeometry>
                </mxCell>
                <mxCell id="46" style="edgeStyle=orthogonalEdgeStyle;rounded=0;html=1;exitX=1;exitY=0.5;exitDx=0;exitDy=0;fontColor=#FF0000;" parent="1" source="41" target="45" edge="1">
                    <mxGeometry relative="1" as="geometry"/>
                </mxCell>
                <mxCell id="41" value="" style="rounded=0;whiteSpace=wrap;html=1;" parent="1" vertex="1">
                    <mxGeometry x="540" y="176.56" width="186" height="106.87" as="geometry"/>
                </mxCell>
                <mxCell id="44" value="PID Namespace: d" style="text;html=1;strokeColor=none;fillColor=none;align=center;verticalAlign=middle;whiteSpace=wrap;rounded=0;" parent="1" vertex="1">
                    <mxGeometry x="558" y="125" width="150" height="30" as="geometry"/>
                </mxCell>
                <mxCell id="45" value="...max 32&amp;nbsp;" style="text;html=1;strokeColor=none;fillColor=none;align=center;verticalAlign=middle;whiteSpace=wrap;rounded=0;fontColor=#FF0000;" parent="1" vertex="1">
                    <mxGeometry x="750" y="215" width="60" height="30" as="geometry"/>
                </mxCell>
                <mxCell id="48" value="&lt;div&gt;&lt;i style=&quot;background-color: rgb(204 , 255 , 204)&quot;&gt;PID Namespace a PID:&amp;nbsp; 10&lt;/i&gt;&lt;br&gt;&lt;/div&gt;" style="text;html=1;strokeColor=none;fillColor=none;align=left;verticalAlign=middle;whiteSpace=wrap;rounded=0;" parent="1" vertex="1">
                    <mxGeometry x="40" y="211.25" width="147.5" height="30" as="geometry"/>
                </mxCell>
                <mxCell id="49" value="&lt;div&gt;&lt;i style=&quot;background-color: rgb(255 , 204 , 230)&quot;&gt;PID Namespace d PID: 1&lt;/i&gt;&lt;/div&gt;&lt;i&gt;&lt;div&gt;&lt;i style=&quot;background-color: rgb(204 , 229 , 255)&quot;&gt;PID Namespace b PID: 2&lt;/i&gt;&lt;/div&gt;&lt;div&gt;&lt;i style=&quot;background-color: rgb(204 , 255 , 204)&quot;&gt;PID Namespace a PID: 12&lt;/i&gt;&lt;i&gt;&lt;br&gt;&lt;/i&gt;&lt;/div&gt;&lt;div&gt;&lt;i&gt;&lt;br&gt;&lt;/i&gt;&lt;/div&gt;&lt;/i&gt;" style="text;html=1;strokeColor=none;fillColor=none;align=left;verticalAlign=middle;whiteSpace=wrap;rounded=0;" parent="1" vertex="1">
                    <mxGeometry x="560.5" y="215" width="147.5" height="36.88" as="geometry"/>
                </mxCell>
                <mxCell id="52" value="&lt;div&gt;&lt;i style=&quot;background-color: rgb(204 , 255 , 204)&quot;&gt;PID Namespace a PID:&amp;nbsp; 13&lt;/i&gt;&lt;br&gt;&lt;/div&gt;" style="text;html=1;strokeColor=none;fillColor=none;align=left;verticalAlign=middle;whiteSpace=wrap;rounded=0;" parent="1" vertex="1">
                    <mxGeometry x="38.75" y="332.5" width="147.5" height="30" as="geometry"/>
                </mxCell>
                <mxCell id="53" value="&lt;div&gt;&lt;i style=&quot;background-color: rgb(204 , 255 , 204)&quot;&gt;PID Namespace a PID:&amp;nbsp; 15&lt;/i&gt;&lt;br&gt;&lt;/div&gt;" style="text;html=1;strokeColor=none;fillColor=none;align=left;verticalAlign=middle;whiteSpace=wrap;rounded=0;" parent="1" vertex="1">
                    <mxGeometry x="40" y="548.75" width="147.5" height="30" as="geometry"/>
                </mxCell>
                <mxCell id="54" value="&lt;i&gt;&lt;span style=&quot;background-color: rgb(229 , 204 , 255)&quot;&gt;PID Namespace c PID: 1&lt;/span&gt;&lt;br&gt;&lt;/i&gt;&lt;i style=&quot;background-color: rgb(204 , 255 , 204)&quot;&gt;PID Namespace a PID: 16&lt;/i&gt;&lt;i&gt;&lt;br&gt;&lt;/i&gt;" style="text;html=1;strokeColor=none;fillColor=none;align=center;verticalAlign=middle;whiteSpace=wrap;rounded=0;" parent="1" vertex="1">
                    <mxGeometry x="295.5" y="580" width="180" height="30" as="geometry"/>
                </mxCell>
                <mxCell id="55" value="create-or-join" style="text;whiteSpace=wrap;html=1;" vertex="1" parent="1">
                    <mxGeometry x="10" y="10" width="100" height="30" as="geometry"/>
                </mxCell>
            </root>
        </mxGraphModel>
    </diagram>
</mxfile>